<svg xmlns="http://www.w3.org/2000/svg" viewBox="0 0 512 512">
  <path fill="#d4a843" d="M473.7 73.8l-215.9-69.5c-4.9-1.6-10.3-1.6-15.2 0L26.7 73.8c-10.5 3.4-17.5 13-17.5 24.1V128c0 17.7 14.3 32 32 32h430.7c17.7 0 32-14.3 32-32V98c0-11-7-20.7-17.5-24.2zM80.1 224v192H128V224H80.1zm80.2 0v192h47.9V224h-47.9zm80.1 0v192h47.9V224h-47.9zm80.2 0v192h47.9V224h-47.9zm80.1 0v192H448V224h-47.3zM16.1 448h479.9c8.8 0 16 7.2 16 16v32c0 8.8-7.2 16-16 16H16.1c-8.8 0-16-7.2-16-16v-32c0-8.8 7.2-16 16-16z"/>
</svg>
